PathFileType  4	(X/Y/Z) /dataNAS/people/anoopai/OpenCap/opencap-core/Examples/Data/88c07931-43a0-4e08-ab4a-30f03d0e7de7/MarkerData/PreAugmentation
DataRate	CameraRate	NumFrames	NumMarkers	Units	OrigDataRate	OrigDataStartFrame	OrigNumFrames
60.0	60.0	10	20	m	60.0	1	73
Frame#	Time	Neck			RShoulder			RElbow			RWrist			LShoulder			LElbow			LWrist			midHip			RHip			RKnee			RAnkle			LHip			LKnee			LAnkle			LBigToe			LSmallToe			LHeel			RBigToe			RSmallToe			RHeel			
		X1	Y1	Z1	X2	Y2	Z2	X3	Y3	Z3	X4	Y4	Z4	X5	Y5	Z5	X6	Y6	Z6	X7	Y7	Z7	X8	Y8	Z8	X9	Y9	Z9	X10	Y10	Z10	X11	Y11	Z11	X12	Y12	Z12	X13	Y13	Z13	X14	Y14	Z14	X15	Y15	Z15	X16	Y16	Z16	X17	Y17	Z17	X18	Y18	Z18	X19	Y19	Z19	X20	Y20	Z20	

1	0.0000000	0.2704400	1.1340100	-0.2311400	0.2890800	1.1367500	-0.0535400	0.3380600	0.9256500	0.1193200	0.4201800	0.7551600	0.3228900	0.2621400	1.1295900	-0.4114600	0.3122000	0.9457300	-0.5971600	0.3821400	0.7739600	-0.7871500	0.2745700	0.5808700	-0.2146300	0.2961400	0.5873700	-0.0986000	0.1885800	0.2104100	-0.0671900	0.1338000	-0.1784000	-0.0386800	0.2579800	0.5748000	-0.3322200	0.1531800	0.2149400	-0.3365900	0.0904300	-0.1722400	-0.3701500	0.2638900	-0.2287200	-0.4392600	0.2586300	-0.2273800	-0.4370700	0.0535700	-0.2040300	-0.3558800	0.3178300	-0.2320200	0.0002700	0.3141600	-0.2295400	-0.0001700	0.0958600	-0.2100900	-0.0403400
2	0.0166667	0.2702700	1.1340600	-0.2311700	0.2888500	1.1367900	-0.0536400	0.3381700	0.9257400	0.1195300	0.4200800	0.7553700	0.3221400	0.2620300	1.1296700	-0.4114200	0.3120500	0.9458500	-0.5971200	0.3820000	0.7741400	-0.7870400	0.2744500	0.5813600	-0.2145700	0.2960500	0.5880000	-0.0984300	0.1887300	0.2106000	-0.0670700	0.1338500	-0.1782500	-0.0386400	0.2577900	0.5752100	-0.3323000	0.1530500	0.2146500	-0.3365100	0.0904300	-0.1724000	-0.3700900	0.2639400	-0.2287700	-0.4391200	0.2586900	-0.2274400	-0.4369300	0.0535600	-0.2042300	-0.3559300	0.3177300	-0.2321700	0.0002600	0.3140600	-0.2296900	-0.0001800	0.0959500	-0.2099600	-0.0402200
3	0.0333333	0.2701000	1.1341200	-0.2312000	0.2886200	1.1367900	-0.0537000	0.3383000	0.9258200	0.1197700	0.4201300	0.7554300	0.3216500	0.2619200	1.1297600	-0.4113900	0.3118500	0.9459600	-0.5970700	0.3818900	0.7744000	-0.7869100	0.2742900	0.5819800	-0.2145400	0.2959600	0.5886900	-0.0982600	0.1888700	0.2108700	-0.0669700	0.1338300	-0.1781500	-0.0386300	0.2575900	0.5757700	-0.3324100	0.1529600	0.2144300	-0.3364000	0.0904400	-0.1725200	-0.3700400	0.2639400	-0.2288400	-0.4389900	0.2586900	-0.2275400	-0.4368300	0.0534400	-0.2044200	-0.3560400	0.3176800	-0.2322800	0.0002700	0.3140200	-0.2298200	-0.0001700	0.0960500	-0.2099100	-0.0402000
4	0.0500000	0.2699200	1.1342300	-0.2312600	0.2883700	1.1368800	-0.0538400	0.3384400	0.9259300	0.1200600	0.4202900	0.7559100	0.3208800	0.2618000	1.1298900	-0.4113700	0.3116000	0.9460900	-0.5970000	0.3818100	0.7746800	-0.7867500	0.2741000	0.5827700	-0.2145700	0.2957500	0.5895900	-0.0981800	0.1890200	0.2111800	-0.0668800	0.1337200	-0.1780900	-0.0386600	0.2574100	0.5764500	-0.3325500	0.1529400	0.2142300	-0.3362500	0.0905000	-0.1726200	-0.3699900	0.2638800	-0.2289300	-0.4388700	0.2586400	-0.2276400	-0.4367300	0.0533500	-0.2046300	-0.3561500	0.3177100	-0.2323800	0.0002800	0.3140400	-0.2299200	-0.0001600	0.0961800	-0.2098600	-0.0401600
5	0.0666667	0.2697400	1.1343400	-0.2313200	0.2881200	1.1369800	-0.0539900	0.3385900	0.9259100	0.1204200	0.4204100	0.7563200	0.3201500	0.2616500	1.1300900	-0.4113600	0.3113400	0.9462300	-0.5969100	0.3817500	0.7749500	-0.7865800	0.2738000	0.5838000	-0.2146900	0.2954800	0.5906800	-0.0982200	0.1892200	0.2115800	-0.0668200	0.1335400	-0.1781100	-0.0387200	0.2570600	0.5773900	-0.3327700	0.1529600	0.2140300	-0.3360800	0.0906000	-0.1727200	-0.3699300	0.2637500	-0.2290100	-0.4387600	0.2585000	-0.2277600	-0.4366500	0.0532700	-0.2048300	-0.3562600	0.3177700	-0.2324100	0.0003400	0.3140900	-0.2299700	-0.0001000	0.0962100	-0.2099000	-0.0401300
6	0.0833333	0.2695600	1.1344300	-0.2313400	0.2878700	1.1370500	-0.0540400	0.3387200	0.9259400	0.1208000	0.4205900	0.7562600	0.3197800	0.2615000	1.1302700	-0.4113600	0.3110900	0.9464700	-0.5968300	0.3816600	0.7746700	-0.7864000	0.2735200	0.5849300	-0.2148200	0.2951500	0.5917800	-0.0982700	0.1894000	0.2120500	-0.0668300	0.1333100	-0.1781300	-0.0387900	0.2569000	0.5783900	-0.3329200	0.1529200	0.2142400	-0.3359400	0.0906800	-0.1726000	-0.3698500	0.2636000	-0.2290200	-0.4386500	0.2583900	-0.2277400	-0.4365800	0.0530600	-0.2050100	-0.3563300	0.3178500	-0.2323500	0.0004100	0.3141700	-0.2299600	-0.0000100	0.0968600	-0.2095000	-0.0401300
7	0.1000000	0.2694000	1.1345700	-0.2314000	0.2876900	1.1371400	-0.0541700	0.3388300	0.9258800	0.1211900	0.4209200	0.7565200	0.3193900	0.2614100	1.1303800	-0.4113200	0.3108700	0.9464900	-0.5967400	0.3816800	0.7750300	-0.7862000	0.2731400	0.5859500	-0.2150000	0.2948900	0.5928600	-0.0984000	0.1896400	0.2125300	-0.0668200	0.1330500	-0.1782800	-0.0388900	0.2564400	0.5794200	-0.3331900	0.1529800	0.2140300	-0.3357600	0.0908100	-0.1726200	-0.3698000	0.2633800	-0.2290100	-0.4385700	0.2581800	-0.2277300	-0.4365000	0.0528000	-0.2050900	-0.3564500	0.3179200	-0.2322700	0.0005000	0.3142300	-0.2299100	0.0000800	0.0963300	-0.2102100	-0.0404500
8	0.1166667	0.2693000	1.1347100	-0.2314300	0.2875600	1.1372300	-0.0543000	0.3389200	0.9258400	0.1215300	0.4211300	0.7565500	0.3190700	0.2612900	1.1306300	-0.4112800	0.3107400	0.9467300	-0.5966800	0.3816800	0.7748500	-0.7860200	0.2728500	0.5870800	-0.2151500	0.2945500	0.5940100	-0.0985600	0.1897700	0.2129500	-0.0668500	0.1327700	-0.1783400	-0.0389700	0.2562200	0.5803600	-0.3333400	0.1529600	0.2142000	-0.3355900	0.0909100	-0.1726000	-0.3697700	0.2630700	-0.2290100	-0.4385700	0.2578500	-0.2277800	-0.4365300	0.0529400	-0.2052600	-0.3564400	0.3179700	-0.2322400	0.0005700	0.3142600	-0.2298900	0.0001600	0.0968700	-0.2096600	-0.0401800
9	0.1333333	0.2692600	1.1348200	-0.2314200	0.2875400	1.1372400	-0.0543400	0.3389800	0.9257400	0.1218100	0.4213600	0.7567100	0.3188000	0.2612300	1.1308300	-0.4112300	0.3106600	0.9468300	-0.5966200	0.3817200	0.7747700	-0.7858700	0.2725600	0.5881000	-0.2153100	0.2943100	0.5950600	-0.0987300	0.1898300	0.2133400	-0.0669500	0.1325100	-0.1784400	-0.0390200	0.2558500	0.5814000	-0.3334800	0.1529700	0.2142900	-0.3354400	0.0909800	-0.1725800	-0.3697500	0.2627800	-0.2289900	-0.4385500	0.2575200	-0.2277700	-0.4365400	0.0530100	-0.2053600	-0.3564100	0.3179600	-0.2321500	0.0006600	0.3142400	-0.2298200	0.0002400	0.0968600	-0.2097100	-0.0402100
10	0.1500000	0.2692700	1.1349100	-0.2313900	0.2875700	1.1372400	-0.0543500	0.3389900	0.9255800	0.1220200	0.4215300	0.7567600	0.3186700	0.2612100	1.1310000	-0.4111400	0.3106100	0.9469200	-0.5965600	0.3817600	0.7747000	-0.7857700	0.2723500	0.5888900	-0.2154100	0.2941200	0.5958900	-0.0988600	0.1897900	0.2136300	-0.0670800	0.1322900	-0.1785100	-0.0390500	0.2556000	0.5820900	-0.3335900	0.1529500	0.2144500	-0.3353000	0.0910100	-0.1725400	-0.3697500	0.2624900	-0.2289500	-0.4385700	0.2572200	-0.2277400	-0.4365700	0.0530900	-0.2054400	-0.3563500	0.3179400	-0.2320800	0.0007400	0.3142100	-0.2297700	0.0003200	0.0967000	-0.2098300	-0.0402000
